# Blender v2.91.0 OBJ File: ''
# www.blender.org
mtllib attachment.mtl
o Cube.001_Cube.003
v -0.200000 0.200000 0.200000
v -0.200000 0.200000 -0.200000
v -0.200000 -0.200000 -0.200000
v -0.200000 -0.200000 0.200000
v 0.200000 -0.200000 0.200000
v 0.200000 -0.200000 -0.200000
v 0.200000 0.200000 -0.200000
v 0.200000 0.200000 0.200000
v -0.160000 -0.200000 -0.200000
v -0.160000 0.200000 -0.200000
v -0.160000 0.200000 0.200000
v -0.160000 -0.200000 0.200000
v 0.160000 0.200000 0.200000
v 0.160000 0.200000 -0.200000
v 0.160000 -0.200000 -0.200000
v 0.160000 -0.200000 0.200000
vt 0.375000 0.000000
vt 0.625000 0.000000
vt 0.625000 0.250000
vt 0.375000 0.250000
vt 0.375000 0.500000
vt 0.625000 0.500000
vt 0.625000 0.750000
vt 0.375000 0.750000
vt 0.602749 0.227749
vt 0.602749 0.022251
vt 0.397251 0.022251
vt 0.397251 0.227749
vt 0.397251 0.727749
vt 0.602749 0.727749
vt 0.602749 0.522251
vt 0.397251 0.522251
vt 0.625000 0.275000
vt 0.375000 0.275000
vt 0.625000 0.475000
vt 0.375000 0.475000
vt 0.375000 0.775000
vt 0.625000 0.775000
vt 0.625000 1.000000
vt 0.375000 1.000000
vt 0.375000 0.975000
vt 0.625000 0.975000
vt 0.350000 0.750000
vt 0.350000 0.500000
vt 0.125000 0.750000
vt 0.125000 0.500000
vt 0.150000 0.500000
vt 0.150000 0.750000
vt 0.875000 0.500000
vt 0.875000 0.750000
vt 0.850000 0.750000
vt 0.850000 0.500000
vt 0.650000 0.500000
vt 0.650000 0.750000
vn -1.0000 0.0000 0.0000
vn 1.0000 0.0000 0.0000
vn 0.0000 -1.0000 0.0000
vn 0.0000 1.0000 0.0000
vn 0.0000 -0.0000 1.0000
vn 0.0000 -0.0000 -1.0000
usemtl None
s 1
f 1/1/1 2/2/1 3/3/1 4/4/1
f 5/5/2 6/6/2 7/7/2 8/8/2
f 9/9/2 10/10/2 11/11/2 12/12/2
f 13/13/1 14/14/1 15/15/1 16/16/1
f 4/4/3 3/3/3 9/17/3 12/18/3
f 15/19/3 6/6/3 5/5/3 16/20/3
f 13/21/4 8/8/4 7/7/4 14/22/4
f 2/23/4 1/24/4 11/25/4 10/26/4
f 5/5/5 8/8/5 13/27/5 16/28/5
f 1/29/5 4/30/5 12/31/5 11/32/5
f 3/33/6 2/34/6 10/35/6 9/36/6
f 7/7/6 6/6/6 15/37/6 14/38/6
